<svg width="28" height="56" viewBox="0 0 28 56" fill="none" xmlns="http://www.w3.org/2000/svg">
<path d="M8.3333 19.5H19.6666M8.3333 32.25C6.17269 33.4974 4.48407 35.4229 3.52933 37.7279C2.57459 40.0328 2.40709 42.5884 3.0528 44.9982C3.69852 47.4081 5.12137 49.5375 7.10067 51.0563C9.07997 52.5751 11.5051 53.3983 14 53.3983C16.4948 53.3983 18.92 52.5751 20.8993 51.0563C22.8786 49.5375 24.3014 47.4081 24.9471 44.9982C25.5928 42.5884 25.4253 40.0328 24.4706 37.7279C23.5159 35.4229 21.8272 33.4974 19.6666 32.25V8.16667C19.6666 6.66377 19.0696 5.22243 18.0069 4.15973C16.9442 3.09702 15.5029 2.5 14 2.5C12.4971 2.5 11.0557 3.09702 9.99303 4.15973C8.93032 5.22243 8.3333 6.66377 8.3333 8.16667V32.25Z" stroke="url(#paint0_linear_23_183)" stroke-width="4" stroke-linecap="round" stroke-linejoin="round"/>
<defs>
<linearGradient id="paint0_linear_23_183" x1="2.66663" y1="27.9491" x2="25.3333" y2="27.9491" gradientUnits="userSpaceOnUse">
<stop stop-color="#2AF598"/>
<stop offset="1" stop-color="#009EFD"/>
</linearGradient>
</defs>
</svg>
